<?xml version="1.0" encoding="UTF-8"?>
<svg id="Layer_2" data-name="Layer 2" xmlns="http://www.w3.org/2000/svg" viewBox="0 0 247 178">
  <defs>
    <style>
      .cls-1 {
        fill: #000;
        stroke-width: 0px;
      }
    </style>
  </defs>
  <g id="Layer_1-2" data-name="Layer 1">
    <g>
      <path class="cls-1" d="M27.35,178c-11.25,0-19.97-.97-20.7-1.05-4.12-.47-7.07-4.19-6.6-8.3.47-4.12,4.19-7.07,8.3-6.6.46.05,33.41,3.67,51.36-3.51,16.15-6.46,41.06-32.03,59-53.8,2.83-3.43,6.58-9.58,10.92-16.71C145.51,62.01,172.07,18.47,217.76.52c3.85-1.51,8.21.38,9.72,4.24,1.51,3.86-.38,8.21-4.24,9.72-41,16.11-64.95,55.37-80.8,81.36-4.83,7.92-8.65,14.18-12.15,18.43-11.89,14.43-42.02,49-65,58.2-11.1,4.44-25.95,5.54-37.94,5.54Z"/>
      <path class="cls-1" d="M68.49,170c-3.87,0-7.16-2.98-7.47-6.91-.33-4.13,2.76-7.74,6.89-8.07,20.94-1.65,61.38-13.11,96.16-27.25,48.96-19.9,62.59-34.74,62.95-39.81.18-2.52-.51-4.3-2.32-5.97-9.92-9.15-43.43-8.31-64.21-5.49-.97.14-1.95.28-2.94.42-4.08.58-7.87-2.25-8.47-6.33-.6-4.08,2.21-7.88,6.28-8.51.52-.08,1.39-.21,2.55-.37,51.5-7.52,59.88-16.45,61.05-18.2-19.01-11.02-56.19-2.28-69.05,2.08-3.92,1.33-8.18-.77-9.51-4.69-1.33-3.92.77-8.18,4.69-9.51,2.18-.74,53.67-17.93,82.34-.29.21.13.41.27.61.42,2.99,2.27,7.53,8.09,5.6,15.49-1.24,4.75-4.69,10.17-16.27,15.51,7,1.75,13.16,4.44,17.5,8.44,5.16,4.75,7.62,11,7.11,18.07-1.14,15.91-25.45,33.62-72.26,52.64-36.61,14.88-77.99,26.52-100.63,28.3-.2.02-.4.02-.6.02Z"/>
      <path class="cls-1" d="M239.24,96.96c-4.1.39-7.78-2.61-8.19-6.72-.41-4.11,2.56-7.77,6.67-8.2"/>
    </g>
  </g>
</svg>